<svg xmlns="http://www.w3.org/2000/svg" fill="none" viewBox="0 0 100 20" height="20" width="100">
<g clip-path="url(#clip0_1657_10773)">
<path fill="#181C1D" d="M100 -5.84354e-05V6.33815H88.0755V18.6194C88.0755 19.379 87.4575 19.9948 86.6953 19.9948H81.4734C80.7112 19.9948 80.0958 19.379 80.0958 18.6194V6.33815H70.5505L64.5329 18.7374C64.1595 19.5047 63.3793 19.9922 62.5219 19.9922H55.1241C54.2383 19.9922 53.4298 19.4867 53.0461 18.6938L48.8233 9.99737L44.6004 18.6938C44.2141 19.4893 43.4082 19.9922 42.5224 19.9922H35.1246C34.2672 19.9922 33.487 19.5047 33.1136 18.7374L26.9775 6.09437L18.0219 6.04818H8.68524C7.91534 6.04818 7.62952 6.33045 7.62952 7.11567C7.62952 7.62119 7.91534 7.81878 8.68524 7.81878C12.6249 7.90346 16.7087 8.01637 20.6793 8.12671C25.6746 8.12671 28.7028 9.19676 28.7028 13.4154C28.7028 18.6758 25.1905 19.9974 20.6793 19.9974H8.1651C2.31229 19.9974 0 17.7469 0 12.8252H7.99516C8.08013 13.8927 9.25173 13.9235 10.2508 13.9235C13.3047 13.9235 18.6451 13.9517 20.0458 13.9517C20.8157 13.9517 21.1016 13.6438 21.1016 12.8534C21.1016 12.3479 20.7591 12.1221 19.9892 12.1221C16.0495 12.0374 11.9657 11.9245 8.02606 11.8142C3.02554 11.8142 0.0669482 10.8006 0.0283242 6.58193C-0.00257493 3.05101 1.94665 -5.84354e-05 8.05181 -5.84354e-05H31.288C32.7583 -5.84354e-05 34.0792 0.89037 34.6302 2.25039L38.8377 12.661L43.4726 1.22653C43.7738 0.48493 44.4948 -5.84354e-05 45.2956 -5.84354e-05H52.3483C53.1491 -5.84354e-05 53.8727 0.48493 54.1714 1.22653L58.7908 12.6584L63.0137 2.24269C63.5647 0.885238 64.8857 -0.00262451 66.3534 -0.00262451H100.003L100 -5.84354e-05Z"></path>
</g>
<defs>
<clipPath id="clip0_1657_10773">
<rect fill="white" height="20" width="100"></rect>
</clipPath>
</defs>
</svg>
